<svg xmlns="http://www.w3.org/2000/svg" width="141" height="98" viewBox="0 0 141 98"><g fill="none" fill-rule="evenodd" stroke-opacity=".5"><g fill="#666" stroke="#666" stroke-width=".5"><path d="M1.023 28.7h139.68v-1.235H1.023zm42.854 42.252H9.155v-1.236h33.487V67.01H1v-1.237h42.877v5.18m88.763 0H96.55v-5.18h44.178v1.237H97.783v2.706h34.858v1.236M5.6 24.427h131.252V23.19H5.6zm24.798-4.274h81.656v-1.236H30.398z"/><path d="M70.176 19.535h1.235V1.115h-1.23zm-5.813 0h1.234V6.32h-1.234zm-5.813 0h1.234v-8.012H58.55z"/><path d="M70.176 19.535h1.235V1.115h-1.23zm5.814 0h1.235V6.32H75.99zm5.812 0h1.236v-8.012h-1.236zM35.767 79.55h70.918v-1.235H35.767z"/><path d="M70.176 97.33h1.235V78.933h-1.23zm-5.813-5.18h1.234V78.933h-1.234zm-5.813-5.205h1.234v-8.012H58.55z"/><path d="M70.176 97.33h1.235V78.933h-1.23zm5.814-5.18h1.235V78.933H75.99zm5.812-5.205h1.236v-8.012h-1.236zm-51.404-11.4h13.336V74.31H30.398zm66.06 0h15.596V74.31H96.457z"/></g><g fill="#cc9d42" stroke="#cc9d42" stroke-width=".5"><path d="M1.023 62.656h15.545V61.42H1.023zm45.173-29.66h14.95V31.76h-14.95zm0 3.707h14.95v-1.236h-14.95zM16.568 58.948H1v-26.57h1.235V57.71h14.333v1.238m14.814-25.953c-7.828 0-14.197 6.376-14.197 14.213 0 7.836 6.37 14.21 14.197 14.21 7.828 0 14.197-6.374 14.197-14.21 0-7.837-6.37-14.213-14.2-14.213zm0 29.66c-8.51 0-15.43-6.93-15.43-15.447 0-8.518 6.92-15.448 15.43-15.448s15.43 6.93 15.43 15.448c0 8.517-6.92 15.448-15.43 15.448z"/><path d="M31.382 58.948V57.71c5.786 0 10.493-4.71 10.493-10.502 0-5.793-4.707-10.505-10.493-10.505v-1.236c6.467 0 11.728 5.267 11.728 11.74 0 6.474-5.26 11.74-11.728 11.74M75.96 32.995c-7.827 0-14.196 6.376-14.196 14.213 0 7.836 6.37 14.21 14.196 14.21 7.828 0 14.197-6.374 14.197-14.21 0-7.837-6.37-14.213-14.197-14.213zm0 29.66c-8.508 0-15.43-6.93-15.43-15.447 0-8.518 6.922-15.448 15.43-15.448 8.51 0 15.432 6.93 15.432 15.448 0 8.517-6.922 15.448-15.432 15.448zm-22.906-.618h1.234V36.085h-1.234z"/><path d="M67.67 55.51c-2.217-2.218-3.437-5.166-3.437-8.302 0-6.474 5.26-11.74 11.727-11.74 6.467 0 11.73 5.266 11.73 11.74h-1.236c0-5.793-4.707-10.505-10.494-10.505-5.786 0-10.493 4.712-10.493 10.505 0 2.806 1.092 5.443 3.074 7.427l-.87.875m29.47 3.335h-1.7v-1.237h1.7c6.78 0 12.3-5.52 12.3-12.306s-5.52-12.307-12.3-12.307h-2.32V31.76h2.32c7.46 0 13.53 6.075 13.53 13.542s-6.07 13.543-13.53 13.543"/><path d="M94.82 62.037h1.235v-7.36H94.82zm14.784.433l-9.13-9.362.872-.404c2.55-1.618 4.07-4.382 4.07-7.402 0-4.828-3.924-8.757-8.747-8.757h-1.85V35.31h1.85c5.5 0 9.98 4.482 9.98 9.992 0 3.247-1.54 6.235-4.15 8.113l7.98 8.19-.89.864m17.52.24c-7.47 0-13.54-6.06-13.58-13.53V31.9h1.23v17.22c0 6.816 5.53 12.36 12.34 12.36s12.34-5.544 12.34-12.36V31.906h1.23v17.288c-.04 7.463-6.12 13.523-13.58 13.523"/><path d="M127.123 58.975c-5.428 0-9.843-4.42-9.843-9.854h1.234c0 4.76 3.862 8.62 8.61 8.62 4.745 0 8.607-3.86 8.607-8.62h1.24c0 5.44-4.41 9.86-9.84 9.86m-50.41-11.8c0 .57-.46 1.03-1.03 1.03-.56 0-1.02-.46-1.02-1.03 0-.57.46-1.03 1.03-1.03.57 0 1.03.46 1.03 1.03m51.44 0c0 .57-.46 1.03-1.03 1.03-.56 0-1.02-.46-1.02-1.03 0-.57.46-1.03 1.03-1.03.57 0 1.03.46 1.03 1.03m-95.74.42c0 .8-.64 1.44-1.44 1.44-.79 0-1.44-.64-1.44-1.44 0-.79.65-1.44 1.44-1.44.8 0 1.44.65 1.44 1.44"/></g><path fill="#fff" d="M49.045 70.4c0-.435.08-.87.236-1.303.16-.433.39-.82.69-1.166.31-.34.68-.62 1.11-.83.44-.21.93-.31 1.48-.31.66 0 1.23.15 1.7.44.47.3.83.68 1.07 1.15l-.9.61c-.1-.22-.22-.4-.36-.55-.14-.15-.3-.27-.47-.35-.17-.09-.34-.15-.53-.19-.18-.03-.36-.05-.53-.05-.38 0-.71.08-1 .23-.29.16-.53.36-.72.61-.19.25-.34.54-.44.85-.1.31-.15.63-.15.94 0 .35.06.69.18 1.01.12.32.28.6.49.85.21.24.45.44.74.59.29.15.6.22.94.22.18 0 .36-.02.55-.07.19-.04.37-.12.55-.21.17-.1.33-.222.48-.372.15-.15.27-.33.36-.54l.95.54c-.12.274-.28.514-.49.72-.21.21-.45.385-.71.53-.27.14-.55.25-.845.33-.296.07-.587.11-.87.11-.51 0-.98-.11-1.4-.33-.425-.214-.79-.5-1.095-.85-.31-.35-.544-.75-.714-1.194-.17-.445-.252-.9-.252-1.364m12.164.86l-1.167-3.12-1.21 3.12h2.37zm-1.665-4.44h1l2.86 7.26H62.2l-.766-1.97h-2.798l-.756 1.97h-1.216l2.88-7.26zm9.96 1.71c-.07-.07-.166-.15-.295-.24-.13-.08-.28-.16-.456-.24-.17-.07-.362-.134-.57-.18-.205-.046-.42-.07-.636-.07-.486 0-.84.09-1.07.27-.23.176-.344.42-.344.735 0 .18.036.326.11.44.072.11.182.21.332.29.15.09.333.16.56.227.22.067.484.136.784.21.37.09.7.19 1 .298.3.11.55.24.75.4.206.157.365.35.477.58.118.23.17.506.17.834 0 .37-.07.686-.21.95-.14.267-.33.484-.57.65-.24.17-.52.29-.84.37-.32.08-.662.116-1.03.116-.55 0-1.083-.08-1.6-.25-.515-.167-.98-.41-1.395-.73l.52-.98c.09.086.218.185.38.294.17.11.36.21.586.302.22.095.46.17.72.238.26.063.527.095.807.095.45 0 .8-.08 1.047-.238.244-.16.366-.39.366-.69 0-.187-.05-.34-.14-.46-.09-.125-.224-.23-.394-.324s-.38-.17-.62-.25c-.245-.07-.524-.15-.837-.23-.36-.095-.677-.196-.946-.3-.27-.107-.49-.23-.67-.38-.18-.15-.31-.33-.404-.53-.09-.2-.138-.45-.138-.73 0-.36.06-.67.2-.95.134-.28.32-.51.554-.7.23-.19.51-.33.83-.422.32-.098.67-.146 1.04-.146.49 0 .95.08 1.36.233.42.16.78.35 1.1.586l-.52.94m2.967 5.55h1.146v-7.26H72.5m4.93 2.13v5.11h-1.15v-7.26h.9l4.148 5.24v-5.23h1.155v7.25h-.95l-4.1-5.11m8.41 1.48c0 .34.058.67.167.99.105.323.26.605.46.85.2.246.446.44.73.59.288.15.608.22.96.22.37 0 .695-.074.978-.23.28-.15.52-.35.72-.605.193-.25.343-.53.45-.85.1-.31.15-.63.15-.96 0-.343-.056-.68-.165-.992-.11-.32-.27-.6-.47-.84-.2-.247-.44-.44-.723-.588-.284-.14-.6-.22-.947-.22-.365 0-.692.08-.98.23-.284.16-.526.354-.723.6-.195.25-.35.53-.45.843-.106.31-.16.64-.16.96zm2.31 3.68c-.52 0-.99-.1-1.413-.31-.43-.21-.795-.484-1.1-.83-.307-.34-.545-.737-.71-1.18-.168-.44-.25-.896-.25-1.36 0-.48.09-.947.264-1.39.18-.44.42-.835.73-1.176.31-.34.68-.61 1.1-.81.42-.2.89-.3 1.39-.3.52 0 .99.11 1.415.32.43.21.79.49 1.09.84.3.35.54.74.7 1.18.17.44.25.89.25 1.34 0 .485-.088.95-.26 1.39-.17.444-.42.835-.73 1.17-.31.34-.68.61-1.11.81-.42.2-.887.3-1.38.3z"/></g></svg>
